<svg class="animated" id="freepik_stories-cat-with-a-witch-hat" xmlns="http://www.w3.org/2000/svg" viewBox="0 0 500 500" version="1.1" xmlns:xlink="http://www.w3.org/1999/xlink" xmlns:svgjs="http://svgjs.com/svgjs"><style>svg#freepik_stories-cat-with-a-witch-hat:not(.animated) .animable {opacity: 0;}svg#freepik_stories-cat-with-a-witch-hat.animated #freepik--Pumpkin--inject-3 {animation: 6s Infinite  linear shake;animation-delay: 0s;}svg#freepik_stories-cat-with-a-witch-hat.animated #freepik--Cat--inject-3 {animation: 3.2s 1 forwards linear fadeIn;animation-delay: 0s;}svg#freepik_stories-cat-with-a-witch-hat.animated #freepik--Skull--inject-3 {animation: 6s Infinite  linear shake;animation-delay: 0s;}svg#freepik_stories-cat-with-a-witch-hat.animated #freepik--Sparkles--inject-3 {animation: 6s Infinite  linear floating;animation-delay: 1s;}            @keyframes shake {                10%, 90% {                    transform: translate3d(-1px, 0, 0);                  }                  20%, 80% {                    transform: translate3d(2px, 0, 0);                  }                  30%, 50%, 70% {                    transform: translate3d(-4px, 0, 0);                  }                  40%, 60% {                    transform: translate3d(4px, 0, 0);                  }            }                    @keyframes fadeIn {                0% {                    opacity: 0;                }                100% {                    opacity: 1;                }            }                    @keyframes floating {                0% {                    opacity: 1;                    transform: translateY(0px);                }                50% {                    transform: translateY(-10px);                }                100% {                    opacity: 1;                    transform: translateY(0px);                }            }        </style><g id="freepik--Floor--inject-3" style="transform-origin: 250.12px 358.63px 0px;" class="animable"><ellipse id="freepik--floor--inject-3" cx="250.12" cy="358.63" rx="211.1" ry="117.36" style="fill: rgb(245, 245, 245); transform-origin: 250.12px 358.63px 0px;" class="animable"></ellipse></g><g id="freepik--Shadows--inject-3" style="transform-origin: 244.815px 389.554px 0px;" class="animable"><ellipse id="freepik--Shadow--inject-3" cx="374.65" cy="383.16" rx="66.73" ry="38.53" style="fill: rgb(224, 224, 224); transform-origin: 374.65px 383.16px 0px;" class="animable"></ellipse><ellipse id="freepik--shadow--inject-3" cx="102.14" cy="398.4" rx="53.89" ry="31.11" style="fill: rgb(224, 224, 224); transform-origin: 102.14px 398.4px 0px;" class="animable"></ellipse><path id="freepik--shadow--inject-3" d="M162,348.58c-39.19,22.62-39.19,59.3,0,81.93s102.72,22.62,141.9,0,39.19-59.31,0-81.93S201.15,326,162,348.58Z" style="fill: rgb(224, 224, 224); transform-origin: 232.948px 389.554px 0px;" class="animable"></path></g><g id="freepik--Pumpkin--inject-3" style="transform-origin: 397.812px 325.618px 0px;" class="animable"><g id="freepik--pumpkin--inject-3" style="transform-origin: 397.812px 325.618px 0px;" class="animable"><g id="freepik--Leaf--inject-3" style="transform-origin: 458.017px 368.428px 0px;" class="animable"><path d="M432.28,364.34C438.33,346.05,450,343.5,452.09,344a6.51,6.51,0,0,0-.11,5,7.57,7.57,0,0,0,3.46,3.52c-1.9.71-4.08,3-3.19,5.16a3.66,3.66,0,0,0,3.31,2,6.06,6.06,0,0,0,4.83-3.81,10.33,10.33,0,0,0,0-6.32c2.67,2.29,8.07,2.29,8.88-3.61.73,2.41,2.63,5.26,5.19,6.21,3.72,1.38,6.43,1.82,11.69,1.6-5.2,2.82-6.8,10.45-3.51,15.61-3.57-1.57-6.58-.91-8.14,1a4.85,4.85,0,0,0-1.08,4.1c-1.89-2.09-6.61-4.3-9.43-.08-1.07,1.61.65,4,2.22,4.67a8.56,8.56,0,0,0,6.88-.4,8.18,8.18,0,0,0-.07,4.72,5.47,5.47,0,0,0,5.11,3.5c-15.6,9.73-30.61,5.67-38.91,1.87C426.67,383,429.48,372.82,432.28,364.34Z" style="fill: rgb(186, 104, 200); transform-origin: 458.017px 368.428px 0px;" id="elkx6x46pcjh8" class="animable"></path><g id="ele5uevvih326"><path d="M432.28,364.34C438.33,346.05,450,343.5,452.09,344a6.51,6.51,0,0,0-.11,5,7.57,7.57,0,0,0,3.46,3.52c-1.9.71-4.08,3-3.19,5.16a3.66,3.66,0,0,0,3.31,2,6.06,6.06,0,0,0,4.83-3.81,10.33,10.33,0,0,0,0-6.32c2.67,2.29,8.07,2.29,8.88-3.61.73,2.41,2.63,5.26,5.19,6.21,3.72,1.38,6.43,1.82,11.69,1.6-5.2,2.82-6.8,10.45-3.51,15.61-3.57-1.57-6.58-.91-8.14,1a4.85,4.85,0,0,0-1.08,4.1c-1.89-2.09-6.61-4.3-9.43-.08-1.07,1.61.65,4,2.22,4.67a8.56,8.56,0,0,0,6.88-.4,8.18,8.18,0,0,0-.07,4.72,5.47,5.47,0,0,0,5.11,3.5c-15.6,9.73-30.61,5.67-38.91,1.87C426.67,383,429.48,372.82,432.28,364.34Z" style="opacity: 0.3; transform-origin: 458.017px 368.428px 0px;" class="animable"></path></g><g id="elj0qfmma93x"><path d="M477.56,359.38a39.53,39.53,0,0,0-11.35,2.16,72,72,0,0,0-10.66,4.4,63,63,0,0,0-9.66,6.1,46.14,46.14,0,0,0-8,7.81l0,0a1.86,1.86,0,0,1-2.92-2.32l.09-.12a49.74,49.74,0,0,1,9.27-7.68,64.05,64.05,0,0,1,10.5-5.5A73,73,0,0,1,466,360.64,40.26,40.26,0,0,1,477.56,359.38Z" style="opacity: 0.2; transform-origin: 456.063px 369.954px 0px;" class="animable"></path></g></g><g id="freepik--Leaves--inject-3" style="transform-origin: 418.84px 286.568px 0px;" class="animable"><path d="M410,249.13a7.87,7.87,0,0,0-1.5-7.42,7.79,7.79,0,0,0-7.06-2.49s-.1,4.47,2.76,7.33A7.81,7.81,0,0,0,410,249.13Z" style="fill: rgb(186, 104, 200); transform-origin: 405.898px 244.124px 0px;" id="elao1f2husmb" class="animable"></path><path d="M405.94,245.32c4.86,4.85,7.85,12.17,10.26,18.49a87.91,87.91,0,0,1,5.23,19.77,76.27,76.27,0,0,1-.91,24.21,105.74,105.74,0,0,1-3,11.87c-1.41,4.53-3.39,8.92-4.65,13.5-.27,1,1.35,1.11,1.76.41,4.22-7.24,6.53-16.28,8.17-24.44a77.68,77.68,0,0,0,1-26.29c-2-13.6-7.25-28.65-17.72-37.93-.23-.2-.3.27-.16.41Z" style="fill: rgb(55, 71, 79); transform-origin: 415.163px 289.439px 0px;" id="eld7t755u06z" class="animable"></path><path d="M431.7,301.83s5.6,2.07,9-4.67.07-15.54.07-15.54-7.11,5.12-9.38,9.55C428.69,296.46,430.15,299.22,431.7,301.83Z" style="fill: rgb(186, 104, 200); transform-origin: 436.058px 291.875px 0px;" id="eljes9ivre1yp" class="animable"></path><path d="M414.29,302.76s3.42-4.89-2.24-9.9-15-4-15-4,3.16,8.17,6.87,11.49C408.33,304.32,411.37,303.6,414.29,302.76Z" style="fill: rgb(186, 104, 200); transform-origin: 406.182px 296.097px 0px;" id="elv681y06d4qi" class="animable"></path><path d="M429.34,279.3a8.36,8.36,0,0,0,6.11-5.55c1.75-4.87-2.72-10.49-2.72-10.49s-6.27,3.64-6.82,8.79A7.3,7.3,0,0,0,429.34,279.3Z" style="fill: rgb(186, 104, 200); transform-origin: 430.847px 271.28px 0px;" id="els4vxwbakq09" class="animable"></path><path d="M411.73,281.38a8.34,8.34,0,0,0-1.86-8c-3.41-3.91-10.49-2.74-10.49-2.74s.12,7.25,4.36,10.23A7.26,7.26,0,0,0,411.73,281.38Z" style="fill: rgb(186, 104, 200); transform-origin: 405.725px 276.408px 0px;" id="el7gtbcc4cqsq" class="animable"></path><path d="M422.74,261.19a7.87,7.87,0,0,0,5-5.3c1.44-4.4-2.3-10.07-2.3-10.07s-5.37,4-6,6.74S422.74,261.19,422.74,261.19Z" style="fill: rgb(186, 104, 200); transform-origin: 423.721px 253.505px 0px;" id="elplj6tmbb25" class="animable"></path><path d="M395.45,252.34a7.35,7.35,0,0,1,6.44.3c3.65,1.81,4.9,7.32,4.9,7.32s-5.85.64-7.92-.64S395.45,252.34,395.45,252.34Z" style="fill: rgb(186, 104, 200); transform-origin: 401.12px 255.929px 0px;" id="elf95q42b1xmb" class="animable"></path><path d="M438.18,289.44c-.55,1.21-1.28,2.39-1.9,3.58s-1.36,2.36-2.08,3.52c-1.45,2.34-3.06,4.6-4.74,6.79s-3.23,4.08-4.93,6-3.49,3.47-5.12,5.31c-.47.53.5,1.11,1,.86,2.09-1.12,3.74-3.22,5.29-5q2.58-2.94,5-6a57.87,57.87,0,0,0,4.45-6.61c.76-1.35,1.41-2.73,2.05-4.15a35.69,35.69,0,0,0,1.36-4c.05-.16-.21-.55-.32-.31Z" style="fill: rgb(55, 71, 79); transform-origin: 428.926px 302.457px 0px;" id="elv07v2jks9li" class="animable"></path><path d="M431.71,269.45c.15,1.69-.76,3.61-1.4,5.12s-1.28,3.27-2,4.88a42.83,42.83,0,0,1-2.5,4.8c-.56.93-1.13,1.85-1.7,2.77a8.81,8.81,0,0,0-1.45,2.67c-.08.42.58.95.95.62a14.23,14.23,0,0,0,2-2.68c.62-.94,1.27-1.85,1.86-2.82a43.47,43.47,0,0,0,2.71-5.31c1.33-3.08,2.93-6.71,1.87-10.09-.07-.24-.36-.25-.34,0Z" style="fill: rgb(55, 71, 79); transform-origin: 427.524px 279.82px 0px;" id="el77nzkxveij" class="animable"></path><path d="M406.15,294.44a34.3,34.3,0,0,0,3.76,3.67,29.2,29.2,0,0,0,3.89,3,22.11,22.11,0,0,0,4.13,2c1.26.44,3.05,1.07,4.38.59.36-.13.72-.73.27-1a7.57,7.57,0,0,0-2.45-.49,12.81,12.81,0,0,1-1.89-.57,28.89,28.89,0,0,1-3.58-1.63c-3-1.63-6-3.38-8.31-6-.25-.29-.37.19-.2.4Z" style="fill: rgb(55, 71, 79); transform-origin: 414.43px 298.896px 0px;" id="eliyhyngpnqmm" class="animable"></path><path d="M403.79,274.25a10.08,10.08,0,0,0,1,2,26,26,0,0,0,1.93,2.25A30.73,30.73,0,0,0,417,285.59c1.56.67,3.58,2.11,5.34,1.46a.5.5,0,0,0,.25-.76,5.36,5.36,0,0,0-2.08-1.11c-.74-.33-1.46-.71-2.2-1a38.62,38.62,0,0,1-4.77-2.39,40.65,40.65,0,0,1-4.69-3.23,25.33,25.33,0,0,1-2.29-2.1c-.78-.81-1.63-1.62-2.36-2.47-.23-.27-.59,0-.43.28Z" style="fill: rgb(55, 71, 79); transform-origin: 413.205px 280.546px 0px;" id="elf351adlc9u5" class="animable"></path><path d="M425,252.11a35.16,35.16,0,0,1-1.5,5.08c-.54,1.55-1,3.13-1.55,4.68-.51,1.37-1.06,2.73-1.58,4.11a12.44,12.44,0,0,0-1.15,4.11c0,.59,1.07,1,1.31.36.6-1.5,1-3.11,1.54-4.63s1.15-2.89,1.59-4.38.82-2.87,1.11-4.33a31.62,31.62,0,0,0,.56-4.84c0-.21-.27-.47-.33-.16Z" style="fill: rgb(55, 71, 79); transform-origin: 422.275px 261.37px 0px;" id="elqlwjgckojm" class="animable"></path><path d="M400.52,256.18a20.75,20.75,0,0,0,1.71,1.92,25.75,25.75,0,0,0,2.11,1.63,37.76,37.76,0,0,0,4.2,2.79,28.27,28.27,0,0,0,4.58,1.84,19.9,19.9,0,0,0,4.6,1.28c1,.09,1.16-1.2.13-1.33a19.89,19.89,0,0,1-4-1.28,39.91,39.91,0,0,1-4.11-1.56c-1.37-.67-2.66-1.53-4-2.27-.62-.34-1.23-.7-1.84-1.07a15.38,15.38,0,0,1-3.12-2.31c-.3-.32-.56.08-.31.36Z" style="fill: rgb(55, 71, 79); transform-origin: 409.46px 260.673px 0px;" id="elzlyhqfv2dgb" class="animable"></path></g><g id="freepik--Pumpking--inject-3" style="transform-origin: 373.979px 355.18px 0px;" class="animable"><g id="freepik--pumpking--inject-3" style="transform-origin: 373.979px 355.18px 0px;" class="animable"><path d="M405.11,311.18c-16.81,5.19-31,13.56-31.2,14.19,0,0-16.4-9.39-29.67-13.9,7-5.2,13.57-7,28.09-7.6C387.52,303.24,399.27,305.18,405.11,311.18Z" style="fill: rgb(186, 104, 200); transform-origin: 374.675px 314.563px 0px;" id="elxvta4gwgx1j" class="animable"></path><g id="elqpw4y4nq0am"><path d="M405.11,311.18c-16.81,5.19-31,13.56-31.2,14.19,0,0-16.4-9.39-29.67-13.9,7-5.2,13.57-7,28.09-7.6C387.52,303.24,399.27,305.18,405.11,311.18Z" style="opacity: 0.25; transform-origin: 374.675px 314.563px 0px;" class="animable"></path></g><g id="elczbm713ksbs"><path d="M389.84,304.6c.05,0,2.88,1.39,1.25,2.62s-13.54,4.47-19.24,3.8-14.06-3.75-12.46-5.94a33.07,33.07,0,0,0-15.15,6.39c13.27,4.51,29.67,13.92,29.67,13.9.22-.63,14.39-9,31.2-14.19C401.78,307.76,396.54,305.66,389.84,304.6Z" style="opacity: 0.1; transform-origin: 374.675px 314.985px 0px;" class="animable"></path></g><g id="freepik--pumpkin--inject-3" style="transform-origin: 405.95px 334.62px 0px;" class="animable"><path d="M373.42,325.82s25.85-7,45.45,3.61c6.15,3.34,16.66,16.46,18.87,30.39,5.53-34.17-21.32-53.47-45.87-50C375.46,312.14,373.31,320.89,373.42,325.82Z" style="fill: rgb(186, 104, 200); transform-origin: 405.944px 334.62px 0px;" id="el9xmc74urqrp" class="animable"></path><g id="eldfdb4vkurtb"><path d="M373.42,325.82s25.85-7,45.45,3.61c6.15,3.34,16.66,16.46,18.87,30.39,5.53-34.17-21.32-53.47-45.87-50C375.46,312.14,373.31,320.89,373.42,325.82Z" style="opacity: 0.1; transform-origin: 405.944px 334.62px 0px;" class="animable"></path></g><g id="eltrjeu8tc8kg"><path d="M437.74,359.82a49.4,49.4,0,0,0-.64-20.16c-.44,2-1.34,2.7-2.55.53-2.13-3.85-3.46-7.87-12.19-15.21s-21.39-8.55-29.62-9.3-5.07-3.74-.87-5.86c-16.41,2.32-18.56,11.07-18.45,16,0,0,25.85-7,45.45,3.61C425,332.77,435.53,345.89,437.74,359.82Z" style="opacity: 0.1; transform-origin: 405.95px 334.82px 0px;" class="animable"></path></g></g><g id="freepik--pumpkin--inject-3" style="transform-origin: 342.608px 337.049px 0px;" class="animable"><path d="M375.74,326.06s-25.85-7-45.45,3.61c-6.16,3.34-16.84,20.84-19.05,34.76-5.74-15.69,3.48-36.58,13.69-45.15a41.64,41.64,0,0,1,32.36-9.22C373.7,312.38,375.85,321.12,375.74,326.06Z" style="fill: rgb(186, 104, 200); transform-origin: 342.609px 337.046px 0px;" id="elbw42mysz45" class="animable"></path><g id="eljxdqfyagcem"><path d="M375.74,326.06s-25.85-7-45.45,3.61c-6.16,3.34-16.84,20.84-19.05,34.76-5.74-15.69,3.48-36.58,13.69-45.15a41.64,41.64,0,0,1,32.36-9.22C373.7,312.38,375.85,321.12,375.74,326.06Z" style="opacity: 0.1; transform-origin: 342.609px 337.046px 0px;" class="animable"></path></g><g id="elg8qwpu9dfkt"><path d="M357.29,310.06a41.48,41.48,0,0,0-17.21,1.21c7.44-1.41,20.69-.12,17.75,2.52s-14.59,1.54-25,7C317,329.17,316.12,341,313.73,341.29c-1.66.19-.21-4.9.83-8-4.66,9.58-6.9,21.38-3.32,31.15,2.21-13.92,12.89-31.42,19.05-34.76,19.6-10.64,45.45-3.61,45.45-3.61C375.85,321.12,373.7,312.38,357.29,310.06Z" style="opacity: 0.1; transform-origin: 342.608px 337.049px 0px;" class="animable"></path></g></g><path d="M420.5,328.48c-12.54-9-23.57-9.92-33.89-6.82-9,2.72-1.6,2.66.76,4.3,1.82,1,11.65,5.84,13.48,7.11,11.6,8,18.95,26.61,19.78,35.35.68,7.24.5,17.93-4.12,26.28,8-2,18.67-8.69,20.79-21.53C440.47,354,433.05,337.53,420.5,328.48Z" style="fill: rgb(186, 104, 200); transform-origin: 410.149px 357.375px 0px;" id="elrrvcfaj3fm" class="animable"></path><g id="elxtau5enlho9"><path d="M437.3,373.17c.17-1.07.31-2.13.42-3.19-3.49,12.15-8.77,12-10.42,11.07s.7-10.62-1.17-19.68-8.48-20.84-15.29-27.1-16.19-7.79-15.84-10.6,9.11-2.88,16.9-.26a34.44,34.44,0,0,0-25.29-1.75c-9,2.72-1.6,2.66.76,4.3,1.82,1,11.65,5.84,13.48,7.11,11.6,8,18.95,26.61,19.78,35.35.68,7.24.5,17.93-4.12,26.28C424.51,392.67,435.18,386,437.3,373.17Z" style="opacity: 0.1; transform-origin: 409.993px 357.371px 0px;" class="animable"></path></g><path d="M372.54,324.49s10.18,8.36,15.32,18.4c7.85,15.34,11.26,33.38,8.24,47.26-1.44,6.64-2.92,11.73-6.26,15.3,4.1,2.15,15.86,2,23.13-5.8a24,24,0,0,0,3.54-4.95c4.62-8.35,5.62-19.27,4.94-26.51-.83-8.74-2.33-23.3-18.28-34.34-11.56-8-25.58-11.7-30.61-9.37Z" style="fill: rgb(186, 104, 200); transform-origin: 397.091px 365.214px 0px;" id="elmgkvrv48z99" class="animable"></path><g id="elrlkf40tr3di"><path d="M372.54,324.49s10.18,8.36,15.32,18.4c7.85,15.34,11.26,33.38,8.24,47.26-1.44,6.64-2.92,11.73-6.26,15.3,4.1,2.15,15.86,2,23.13-5.8a24,24,0,0,0,3.54-4.95c4.62-8.35,5.62-19.27,4.94-26.51-.83-8.74-2.33-23.3-18.28-34.34-11.56-8-25.58-11.7-30.61-9.37Z" style="fill: rgb(255, 255, 255); opacity: 0.15; transform-origin: 397.091px 365.214px 0px;" class="animable"></path></g><g id="eldl1w3lu2b9v"><path d="M413.2,390.87c-8.32,7.38-14.15,6.73-14.15,6.73,7.7-15.43,1.8-32.15-3.72-43l-1.82,2.07c3.63,11.6,4.73,23.57,2.59,33.43-1.44,6.64-2.92,11.73-6.26,15.3,4.1,2.15,15.86,2,23.13-5.8a24,24,0,0,0,3.54-4.95c4.21-7.62,5.41-17.37,5.08-24.52C421.56,371.26,421.16,383.81,413.2,390.87Z" style="opacity: 0.05; transform-origin: 405.741px 380.593px 0px;" class="animable"></path></g><path d="M328.76,328.48c12.55-9,23.58-9.92,33.9-6.82,9,2.72,1.6,2.66-.77,4.3-1.81,1-11.64,5.84-13.47,7.11-11.6,8-18.95,26.61-19.78,35.35-.68,7.24-.5,17.93,4.12,26.28-8-2-18.67-8.69-20.79-21.53C308.8,354,316.22,337.53,328.76,328.48Z" style="fill: rgb(186, 104, 200); transform-origin: 339.121px 357.375px 0px;" id="elftybhait7i8" class="animable"></path><g id="elzs5muikyzn"><path d="M362.66,321.66a34.18,34.18,0,0,0-20.94,0c6.58-1.48,14.24.53,11.51,3.27s-17.06,4.16-24.69,21.86-3,30.58-4,35.72-10.61-.68-13.2-14.38c.12,1.64.31,3.3.59,5,2.12,12.84,12.79,19.5,20.79,21.53-4.62-8.35-4.8-19-4.12-26.28.83-8.74,8.18-27.34,19.78-35.35,1.83-1.27,11.66-6.09,13.47-7.11C364.26,324.32,371.64,324.38,362.66,321.66Z" style="opacity: 0.1; transform-origin: 339.166px 357.338px 0px;" class="animable"></path></g><path d="M376.73,324.49s-10.18,8.36-15.32,18.4c-7.85,15.34-11.26,33.38-8.24,47.26,1.44,6.64,2.91,11.73,6.26,15.3-4.1,2.15-15.86,2-23.13-5.8a24,24,0,0,1-3.54-4.95c-4.62-8.35-5.63-19.27-4.94-26.51.83-8.74,2.43-24.64,18.37-35.68,11.56-8,25.49-10.36,30.52-8Z" style="fill: rgb(186, 104, 200); transform-origin: 352.177px 365.137px 0px;" id="elqtok720pr2n" class="animable"></path><g id="el6k1867fkghk"><path d="M376.73,324.49s-10.18,8.36-15.32,18.4c-7.85,15.34-11.26,33.38-8.24,47.26,1.44,6.64,2.91,11.73,6.26,15.3-4.1,2.15-15.86,2-23.13-5.8a24,24,0,0,1-3.54-4.95c-4.62-8.35-5.63-19.27-4.94-26.51.83-8.74,2.43-24.64,18.37-35.68,11.56-8,25.49-10.36,30.52-8Z" style="fill: rgb(255, 255, 255); opacity: 0.15; transform-origin: 352.177px 365.137px 0px;" class="animable"></path></g><g id="elry24eg2avvk"><path d="M336.07,390.87c8.32,7.38,14.15,6.73,14.15,6.73-7.7-15.43-1.8-32.15,3.72-43l1.82,2.07c-3.63,11.6-4.74,23.57-2.59,33.43,1.44,6.64,2.91,11.73,6.26,15.3-4.1,2.15-15.86,2-23.13-5.8a24,24,0,0,1-3.54-4.95c-4.21-7.62-5.42-17.37-5.08-24.52C327.7,371.26,328.11,383.81,336.07,390.87Z" style="opacity: 0.05; transform-origin: 343.528px 380.593px 0px;" class="animable"></path></g><path d="M351.23,375.23c-.19,9,1.45,22.39,6.47,28.64a20.76,20.76,0,0,0,17.44,8.23,20.19,20.19,0,0,0,14.7-6.65c3.34-3.57,5.91-8.68,7.34-15.32,3-13.87.91-32.53-6.6-48-8.48-17.47-17.79-16-17.79-16s-5.77-.55-14.38,15.55C354.9,348.23,351.48,362.91,351.23,375.23Z" style="fill: rgb(186, 104, 200); transform-origin: 374.857px 369.109px 0px;" id="elbxc6g6i6sv4" class="animable"></path><g id="eli3f4xw5ypk"><path d="M351.23,375.23c-.19,9,1.45,22.39,6.47,28.64a20.76,20.76,0,0,0,17.44,8.23,20.19,20.19,0,0,0,14.7-6.65c3.34-3.57,5.91-8.68,7.34-15.32,3-13.87.91-32.53-6.6-48-8.48-17.47-17.79-16-17.79-16s-5.77-.55-14.38,15.55C354.9,348.23,351.48,362.91,351.23,375.23Z" style="fill: rgb(255, 255, 255); opacity: 0.3; transform-origin: 374.857px 369.109px 0px;" class="animable"></path></g><g id="elsqtlo59zda"><path d="M398.31,382.29c-1.56,8.94-8.56,19.69-20.7,22.85-12.29,3.2-21.91-5.38-24.49-11.76,1,4.17,2.52,7.93,4.58,10.49a20.76,20.76,0,0,0,17.44,8.23,20.19,20.19,0,0,0,14.7-6.65c3.34-3.57,5.91-8.68,7.34-15.32A57.32,57.32,0,0,0,398.31,382.29Z" style="opacity: 0.05; transform-origin: 375.715px 397.204px 0px;" class="animable"></path></g><path d="M380.89,329.17s-4.55-2-8-1.51-7.52,3.57-7.52,3.57-.48-4.59-7.53-4.72c0,0,2.64-3.29,1-5.74a8.25,8.25,0,0,0,7-5.35,11.38,11.38,0,0,0,.17-6.64,7.24,7.24,0,0,0-.92-2.39,3.86,3.86,0,0,1-1-2.89,4,4,0,0,1,1-1.67,5.56,5.56,0,0,1,3.13-2.21c1-.13,2,.28,2.95.22,1.36-.09,2.51-1,3.82-1.42a4.88,4.88,0,0,1,3.92.58c1.14.71,1.17,1.52,1.59,2.67a19.66,19.66,0,0,1,1.33,7.84c-.31,6.21-.88,10.23,4.78,12.15,0,0-2.31,1.55.91,4.3C387.52,326,381.39,324.68,380.89,329.17Z" style="fill: rgb(55, 71, 79); transform-origin: 372.68px 314.736px 0px;" id="el0qgr9k5gjgu" class="animable"></path><path d="M364.39,305.24a2.56,2.56,0,0,1-.31-1.74,4,4,0,0,1,1-1.67,5.56,5.56,0,0,1,3.13-2.21c1-.13,2,.28,2.95.22,1.36-.09,2.51-1,3.82-1.42a4.88,4.88,0,0,1,3.92.58,2.63,2.63,0,0,1,1.16,1.43,1.88,1.88,0,0,1-.64,1.89c-.67.48-1.62.51-2.18,1.11s-.51,1.75-.86,2.61a2.43,2.43,0,0,1-2.38,1.45,10,10,0,0,1-2.09-.67c-2.18-.68-4.77.31-6.72-.87A3.66,3.66,0,0,1,364.39,305.24Z" style="fill: rgb(69, 90, 100); transform-origin: 372.076px 302.868px 0px;" id="elzwclavxh6af" class="animable"></path><path d="M363.35,328.09c3.42-3.32,6.63-11.13,7.1-15.29a33.4,33.4,0,0,1-1,9.85c-1.35,4.6-2.67,5.68-4.05,8.58A5,5,0,0,0,363.35,328.09Z" style="fill: rgb(38, 50, 56); transform-origin: 366.919px 322.015px 0px;" id="el2hg8pkb6aif" class="animable"></path><path d="M376.05,321.76a48.45,48.45,0,0,1,.33-9.05s-.49,8,2,11.18a13.14,13.14,0,0,0,3.55,3.09,3.4,3.4,0,0,0-1,2.19A8.75,8.75,0,0,1,376.05,321.76Z" style="fill: rgb(38, 50, 56); transform-origin: 378.95px 320.94px 0px;" id="elrodqdwogbjc" class="animable"></path></g><path d="M379.44,369.71c-.79.7-9.2.71-9.64.05-.13-.19.11-.87.53-1.73,1-2.09,3.07-5.34,3.78-5.38,1.31-.07,3.84,3.21,4.93,5.33C379.47,368.83,379.67,369.5,379.44,369.71Z" style="fill: rgb(186, 104, 200); transform-origin: 374.651px 366.447px 0px;" id="elgzyo5jnkly4" class="animable"></path><g id="el5lxo83a3gf4"><path d="M379.44,369.71c-.79.7-9.2.71-9.64.05-.13-.19.11-.87.53-1.73,1-2.09,3.07-5.34,3.78-5.38,1.31-.07,3.84,3.21,4.93,5.33C379.47,368.83,379.67,369.5,379.44,369.71Z" style="opacity: 0.35; transform-origin: 374.651px 366.447px 0px;" class="animable"></path></g><path d="M379,368a28.29,28.29,0,0,1-8.71,0c1-2.1,3.07-5.34,3.78-5.38C375.42,362.58,377.93,365.85,379,368Z" style="fill: rgb(38, 50, 56); transform-origin: 374.645px 365.478px 0px;" id="eluouisdyizml" class="animable"></path><g id="elxy4zt7tr9a"><ellipse cx="404.87" cy="356.84" rx="14.53" ry="16.94" style="fill: rgb(186, 104, 200); transform-origin: 404.87px 356.84px 0px; transform: rotate(-19.3443deg);" class="animable"></ellipse></g><g id="el3itekqjk1lr"><ellipse cx="404.87" cy="356.84" rx="14.53" ry="16.94" style="opacity: 0.35; transform-origin: 404.87px 356.84px 0px; transform: rotate(-19.3443deg);" class="animable"></ellipse></g><path d="M412.89,351.78c-2.11-5.93-6.72-10.12-11.81-11.41a12.73,12.73,0,0,0-1.88.5c-7.56,2.68-11.16,12-8,20.83A17.56,17.56,0,0,0,403,373.11a12.29,12.29,0,0,0,1.87-.5C412.42,369.93,416,360.6,412.89,351.78Z" style="fill: rgb(38, 50, 56); transform-origin: 402.032px 356.74px 0px;" id="ell5mv2dpkja" class="animable"></path><path d="M329.65,352c-3.13,8.82.47,18.15,8,20.83s16.24-2.29,19.37-11.11-.47-18.15-8-20.83S332.78,343.16,329.65,352Z" style="fill: rgb(186, 104, 200); transform-origin: 343.335px 356.859px 0px;" id="elgfa8xf55i6d" class="animable"></path><g id="elxgtv4nx9twm"><path d="M329.65,352c-3.13,8.82.47,18.15,8,20.83s16.24-2.29,19.37-11.11-.47-18.15-8-20.83S332.78,343.16,329.65,352Z" style="opacity: 0.35; transform-origin: 343.335px 356.859px 0px;" class="animable"></path></g><path d="M335.33,351.78a17.56,17.56,0,0,1,11.81-11.41,12.61,12.61,0,0,1,1.87.5c7.57,2.68,11.16,12,8,20.83-2.11,5.93-6.72,10.12-11.81,11.41a12.73,12.73,0,0,1-1.88-.5C335.8,369.93,332.2,360.6,335.33,351.78Z" style="fill: rgb(38, 50, 56); transform-origin: 346.179px 356.74px 0px;" id="el6yja7bgbo5y" class="animable"></path><path d="M385.92,373.19a.56.56,0,0,0-.89.42,4,4,0,0,1-1.66,3,6.41,6.41,0,0,1-.85.52c-.32,1.61-.87,4.15-1.22,4.18s-1.54-1.84-2.13-3.06a22,22,0,0,1-9,0c-.59,1.22-1.7,3.11-2.14,3.06s-.9-2.57-1.21-4.18a6.41,6.41,0,0,1-.85-.52,4,4,0,0,1-1.66-3,.56.56,0,0,0-.89-.42,8.33,8.33,0,0,0-1.3,10.72c2.6,4.3,7.85,5.73,12.57,5.73s10-1.43,12.57-5.73A8.34,8.34,0,0,0,385.92,373.19Z" style="fill: rgb(186, 104, 200); transform-origin: 374.681px 381.361px 0px;" id="el92ee8s5fhyd" class="animable"></path><g id="el45uavps30p3"><path d="M385.92,373.19a.56.56,0,0,0-.89.42,4,4,0,0,1-1.66,3,6.41,6.41,0,0,1-.85.52c-.32,1.61-.87,4.15-1.22,4.18s-1.54-1.84-2.13-3.06a22,22,0,0,1-9,0c-.59,1.22-1.7,3.11-2.14,3.06s-.9-2.57-1.21-4.18a6.41,6.41,0,0,1-.85-.52,4,4,0,0,1-1.66-3,.56.56,0,0,0-.89-.42,8.33,8.33,0,0,0-1.3,10.72c2.6,4.3,7.85,5.73,12.57,5.73s10-1.43,12.57-5.73A8.34,8.34,0,0,0,385.92,373.19Z" style="opacity: 0.35; transform-origin: 374.681px 381.361px 0px;" class="animable"></path></g><path d="M385.92,373.19a.56.56,0,0,0-.89.42,4,4,0,0,1-1.66,3,6.41,6.41,0,0,1-.85.52c-.32,1.61-.87,4.15-1.22,4.18s-1.54-1.84-2.13-3.06a22,22,0,0,1-9,0c-.59,1.22-1.7,3.11-2.14,3.06s-.9-2.57-1.21-4.18a6.41,6.41,0,0,1-.85-.52,4,4,0,0,1-1.66-3,.56.56,0,0,0-.89-.42,7.52,7.52,0,0,0-2.48,4.36,9.3,9.3,0,0,0,1.18,3c2.6,4.3,7.85,5.73,12.57,5.73s10-1.43,12.57-5.73a9.54,9.54,0,0,0,1.18-3A7.62,7.62,0,0,0,385.92,373.19Z" style="fill: rgb(38, 50, 56); transform-origin: 374.69px 379.681px 0px;" id="elwkb9usp1erc" class="animable"></path></g></g></g><g id="freepik--Cat--inject-3" style="transform-origin: 224.863px 246.737px 0px;" class="animable animator-active"><g id="freepik--cat--inject-3" style="transform-origin: 224.863px 246.737px 0px;" class="animable"><path d="M268.36,311.69c-7.61,75.89,17.36,95.13,24.44,97.33s16.6,2.89,22-5.69-11.9-13.47-11.9-13.47c-5.75-20,.82-50.84,7.86-62.37C321,310.8,326,283,318.4,261.38S269.48,273.7,268.36,311.69Z" style="fill: rgb(55, 71, 79); transform-origin: 294.503px 332.538px 0px;" id="ellbq1njiyzbd" class="animable"></path><path d="M301.62,384.14h0a52.52,52.52,0,0,0,1.3,5.72,16.67,16.67,0,0,0-14.63,3.23S285.47,384.9,301.62,384.14Z" style="fill: rgb(38, 50, 56); transform-origin: 295.511px 388.615px 0px;" id="eluqmwkn2ai2e" class="animable"></path><path d="M297.69,398.46a.78.78,0,0,1,.4-.06,9.69,9.69,0,0,1,3.65.84,8.4,8.4,0,0,1,3.81,4.42,10.17,10.17,0,0,1,.5,5.46c0,.27-.1.53-.16.8a17.83,17.83,0,0,1-2.82.46c.07-.23.15-.45.2-.68a8.68,8.68,0,0,0-.27-4.52c-.86-2.69-3.1-4.69-5.32-6.25,0,0-.1-.08-.12-.13a.21.21,0,0,1,0-.24A.35.35,0,0,1,297.69,398.46Z" style="fill: rgb(38, 50, 56); transform-origin: 301.87px 404.387px 0px;" id="el07xeuh1vq4zn" class="animable"></path><path d="M311.57,407.06a13.37,13.37,0,0,0-.15-3.28,13,13,0,0,0-3.81-7.22.79.79,0,0,1-.34-.66c.19-.76,3.38,1.44,3.71,1.74a9.89,9.89,0,0,1,2.69,4.57,11.72,11.72,0,0,1,.4,2.19A14.86,14.86,0,0,1,311.57,407.06Z" style="fill: rgb(38, 50, 56); transform-origin: 310.67px 401.401px 0px;" id="elbjisj5vi2gg" class="animable"></path><path d="M148.61,380.47c-23.06,0-47.14-11.87-57.88-37.22-13.46-31.76,10.61-61.84,29.88-81.7,12.34-12.71,30.83-36.77,16.07-55.12-10.17-12.63-30.55-11.88-39.57-5.84a8.5,8.5,0,1,1-9.46-14.12c14.86-10,45.74-11.23,62.27,9.3,8.39,10.43,11.18,23.1,8.06,36.64-3,13.09-11.48,26.88-25.17,41-33.21,34.21-31,52.47-26.43,63.23,10.2,24.06,37.18,31.3,57.38,24.42a8.5,8.5,0,0,1,5.48,16.09A64.3,64.3,0,0,1,148.61,380.47Z" style="fill: rgb(55, 71, 79); transform-origin: 129.297px 279.969px 0px;" id="eljk82skhbf4f" class="animable"></path><path d="M364.59,152.33c6.48,4.86-9.66,35.15-43.3,44a97.48,97.48,0,0,1-48.12,0l21.46-37.61S351.15,148.83,364.59,152.33Z" style="fill: rgb(186, 104, 200); transform-origin: 319.584px 175.463px 0px;" id="elhc5e2wvhn35" class="animable"></path><g id="elv3su88jaxo"><path d="M364.59,152.33c6.48,4.86-9.66,35.15-43.3,44a97.48,97.48,0,0,1-48.12,0l21.46-37.61S354,149.49,364.59,152.33Z" style="opacity: 0.35; transform-origin: 319.584px 175.567px 0px;" class="animable"></path></g><g id="ellv09ilktxpk"><path d="M300.46,196.3a28.67,28.67,0,0,0,3.35,2.79,92.24,92.24,0,0,0,17.48-2.79,72.31,72.31,0,0,0,8.92-3c3.87-9.19-3.06-17.27-1.4-20.43,2-3.83,8.22-10.16,18.45-15.16l-6-5c-12.88,1.18-27.82,3.2-37.26,4.54Z" style="opacity: 0.15; transform-origin: 323.86px 175.9px 0px;" class="animable"></path></g><path d="M200.28,403.17c12.94,6.12,35.87,4.11,44.87-12.74s6.06-76.78-17.55-84.53S179.32,378.2,200.28,403.17Z" style="fill: rgb(69, 90, 100); transform-origin: 221.104px 355.853px 0px;" id="elklneuym0xt" class="animable"></path><path d="M193.76,388.6l9.52-35.46a36.41,36.41,0,0,0-6.38-9.73q.79-2.79,1.69-5.49a44.69,44.69,0,0,1,11.71,13.82c10.69,19.83,4,45.89,4,45.89s7.81,6.35,22.25-8.41c6.26-6.39,10.45-15.16,13.2-23.06-.32,10.26-1.94,19.21-4.64,24.27-9,16.85-31.93,18.86-44.87,12.74C197.12,399.41,195,394.38,193.76,388.6Z" style="fill: rgb(55, 71, 79); transform-origin: 221.755px 372.126px 0px;" id="ellr1sdy7b5rq" class="animable"></path><path d="M303,205.13c-9,19.67,24.41,45.57,15.84,84-6.41,28.72-39.15,46.18-47.86,56.51s-13.48,40.5-7.13,60.35c0,0,17.48,4.37,12.31,13.1s-14.69,8.34-21.84,6.36-35.73-21.84-34.54-97.68a55.21,55.21,0,0,0-16.46,25.41,61.11,61.11,0,0,1,5.47,26.33c-.44,12.71-8.47,23.7-8.47,23.7s9.14-.4,15.89,1.19,8.33,7.55,6.75,11.52-9.14,7.94-16.68,6.35-43.78-8.66-61.55-29.38-17.42-48.65-11.9-70.91c6.3-25.4,23.26-53.87,68.68-80,19.63-11.29,29.31-28.47,30.1-45.66Z" style="fill: rgb(69, 90, 100); transform-origin: 224.871px 311.471px 0px;" id="elvqt99odyjop" class="animable"></path><path d="M303,205.13l-71.39-8.83a50.58,50.58,0,0,1-1.4,9.67h0c3.19,13.72,29.4,35.71,58,31.3a38.89,38.89,0,0,0,18-7.3C302.11,220.62,299.6,212.44,303,205.13Z" style="fill: rgb(55, 71, 79); transform-origin: 268.21px 217.072px 0px;" id="el3qipvmor4x5" class="animable"></path><path d="M177.36,327.76s17.43,3.26,28.85,17.76a48.64,48.64,0,0,0-2.93,7.62C197.3,338.92,177.36,327.76,177.36,327.76Z" style="fill: rgb(55, 71, 79); transform-origin: 191.785px 340.45px 0px;" id="el1nnppnteegt" class="animable"></path><path d="M230,396c-13.84-38.41-13.84-70.85-13.84-70.85.93-24,8.49-27.31,8.49-27.31s-4.44,9.47-4.9,29.94C219.74,327.73,219.94,352.38,230,396Z" style="fill: rgb(55, 71, 79); transform-origin: 223.08px 346.92px 0px;" id="el6j95isxb77" class="animable"></path><path d="M262.35,400.28h0a54,54,0,0,0,1.46,5.67,16.64,16.64,0,0,0-14.51,3.67S246.23,401.52,262.35,400.28Z" style="fill: rgb(55, 71, 79); transform-origin: 256.438px 404.95px 0px;" id="elfcdlktxdcou" class="animable"></path><path d="M190.08,409.62a21.28,21.28,0,0,0,10.2-6.45,83.82,83.82,0,0,1,9.43.23C202.77,411.88,190.08,409.62,190.08,409.62Z" style="fill: rgb(55, 71, 79); transform-origin: 199.895px 406.51px 0px;" id="elyl4fwsf36u" class="animable"></path><path d="M258.85,414.7a.79.79,0,0,1,.4-.07,9.54,9.54,0,0,1,3.67.73,8.44,8.44,0,0,1,3.95,4.31,10.21,10.21,0,0,1,.66,5.44c0,.26-.08.53-.13.8a17.87,17.87,0,0,1-2.81.54c.06-.23.14-.45.18-.69a8.64,8.64,0,0,0-.41-4.5c-.94-2.66-3.24-4.59-5.5-6.09a.5.5,0,0,1-.13-.12.23.23,0,0,1,0-.24A.38.38,0,0,1,258.85,414.7Z" style="fill: rgb(38, 50, 56); transform-origin: 263.171px 420.539px 0px;" id="els6ap6wync9l" class="animable"></path><path d="M273,422.88a12.85,12.85,0,0,0-.24-3.27,13.14,13.14,0,0,0-4-7.11.78.78,0,0,1-.36-.64c.17-.77,3.43,1.33,3.76,1.62a9.88,9.88,0,0,1,2.83,4.49,11.65,11.65,0,0,1,.46,2.17A15.09,15.09,0,0,1,273,422.88Z" style="fill: rgb(38, 50, 56); transform-origin: 271.925px 417.286px 0px;" id="elyouo62vmx89" class="animable"></path><path d="M207.65,413.43a.8.8,0,0,1,.37-.18,9.61,9.61,0,0,1,3.73-.32,8.52,8.52,0,0,1,5,3.05,10.16,10.16,0,0,1,2,4.2,16.25,16.25,0,0,1-2.48,1.19,8.84,8.84,0,0,0-1.46-3.16c-1.64-2.3-4.39-3.52-7-4.33a.4.4,0,0,1-.16-.08.22.22,0,0,1,0-.24A.27.27,0,0,1,207.65,413.43Z" style="fill: rgb(38, 50, 56); transform-origin: 213.182px 417.121px 0px;" id="elh3p9hizpq39" class="animable"></path><path d="M221.92,417.51a13.17,13.17,0,0,0-6.95-8.64c-.22-.11-.48-.25-.52-.52,0-.78,3.66.33,4.06.52a9.91,9.91,0,0,1,4,3.53,11.79,11.79,0,0,1,.92,1.67,8.3,8.3,0,0,1-.47,1.81A6.46,6.46,0,0,1,221.92,417.51Z" style="fill: rgb(38, 50, 56); transform-origin: 218.94px 412.793px 0px;" id="elxxk57rp6g6" class="animable"></path><path d="M271.87,309.78S274,336,267.24,351.63h0a27.08,27.08,0,0,1,3.7-6,55.44,55.44,0,0,1,6.71-6.27A88.42,88.42,0,0,0,271.87,309.78Z" style="fill: rgb(55, 71, 79); transform-origin: 272.445px 330.705px 0px;" id="elz00ebgg1d4p" class="animable"></path><path d="M285.34,229.89c2.35.52,8.49,6.78,8.94,13.23,0,0,6.44-.85,8.92-6.2-.95-4.16-9.81-9.12-17.23-9.06Z" style="fill: rgb(186, 104, 200); transform-origin: 294.27px 235.49px 0px;" id="elw9mvfvbm8os" class="animable"></path><g id="elapfkj81ieub"><path d="M285.34,229.89c2.35.52,8.49,6.78,8.94,13.23,0,0,6.44-.85,8.92-6.2-.95-4.16-9.81-9.12-17.23-9.06Z" style="opacity: 0.25; transform-origin: 294.27px 235.49px 0px;" class="animable"></path></g><g id="el4wocufm057x"><path d="M286,227.86l-.63,2a4.39,4.39,0,0,1,1.35.65,13,13,0,0,1,9,5.52,29.45,29.45,0,0,0,3.76,5.08,10,10,0,0,0,3.78-4.22C302.25,232.76,293.39,227.8,286,227.86Z" style="opacity: 0.15; transform-origin: 294.315px 234.485px 0px;" class="animable"></path></g><path d="M279.82,224.55c-4.45-1.34-17.32-2.64-27.88,2.43a34.3,34.3,0,0,0-11.59,9.39c4.3-.33,12.16,3,16.52,10.94,3.22-1.56,5.33-5,9.71-11.08s11.7-8.09,11.7-8.09Z" style="fill: rgb(186, 104, 200); transform-origin: 260.085px 235.326px 0px;" id="elehen29kbr9" class="animable"></path><g id="el3wb202wrxt2"><path d="M279.82,224.55c-4.45-1.34-17.32-2.64-27.88,2.43a34.3,34.3,0,0,0-11.59,9.39c4.3-.33,12.16,3,16.52,10.94,3.22-1.56,5.33-5,9.71-11.08s11.7-8.09,11.7-8.09Z" style="opacity: 0.35; transform-origin: 260.085px 235.326px 0px;" class="animable"></path></g><g id="el9674eof5nmk"><path d="M278.28,228.14l1.54-3.59c-4.45-1.34-17.32-2.64-27.88,2.43l-.38.2c3.2,4.28,4,10.85,2.68,13.71a9.51,9.51,0,0,1,7.29,2.26c1.42-1.77,3-4.05,5.05-6.92C271,230.15,278.28,228.14,278.28,228.14Z" style="opacity: 0.15; transform-origin: 265.69px 233.246px 0px;" class="animable"></path></g><path d="M265.41,238.34c3.48.72,6.57,3.67,7.26,6.65,3.24-2.22,8.91-8.82,6.91-15A14.06,14.06,0,0,0,265.41,238.34Z" style="fill: rgb(186, 104, 200); transform-origin: 272.704px 237.46px 0px;" id="elkyrtn0qaboi" class="animable"></path><g id="ell2ocd0uk8fn"><path d="M265.41,238.34c3.48.72,6.57,3.67,7.26,6.65,3.24-2.22,8.91-8.82,6.91-15A14.06,14.06,0,0,0,265.41,238.34Z" style="opacity: 0.25; transform-origin: 272.704px 237.46px 0px;" class="animable"></path></g><g id="elcejotuuxymd"><path d="M265.41,238.34a10.1,10.1,0,0,1,5.35,3.19,11.59,11.59,0,0,1,4.23-5.05c1.88-1.25,3.73-2,5-4a8.76,8.76,0,0,0-.41-2.4A14.06,14.06,0,0,0,265.41,238.34Z" style="opacity: 0.15; transform-origin: 272.7px 235.773px 0px;" class="animable"></path></g><path d="M286.19,225.28c3.2-2.53,16-10.56,26.54-11.12.19,3.29,3.18,9.26,8.39,10.67.26,2.4-3.2,6.07-8.68,10.42s-6.22,9.2-6.22,9.2-3.78-1.17-7.41-7.41a17.61,17.61,0,0,0-12.38-8C282.67,228.78,286.19,225.28,286.19,225.28Z" style="fill: rgb(186, 104, 200); transform-origin: 302.914px 229.305px 0px;" id="elizvyhr4pl9r" class="animable"></path><g id="elp0yurvhmixa"><path d="M305,223.37a22.66,22.66,0,0,0-6.83-.3,39.94,39.94,0,0,0-7.31.92c-1.21.27-2.41.6-3.6,1a5.81,5.81,0,0,0-2.93,1.63c-.05.07-.17.35,0,.4a3.58,3.58,0,0,0,2.11-.18,11.17,11.17,0,0,0,1.25.55l2.71,1.07c1.79.71,3.57,1.47,5.39,2.08,1.25.42,3.25,1.21,4.53.53.93-.49.47-1.24-.28-1.57,0,0,0,0,0,.05.28.21,1.07.82.13,1.09a1.56,1.56,0,0,1-.61-.09,17.19,17.19,0,0,1-2-.55c-1.35-.47-2.64-1.09-4-1.61l-4-1.59c-.39-.15-.79-.34-1.21-.53l1.21-.35c1.79-.46,3.62-.85,5.45-1.14a46,46,0,0,1,5.36-.5c1,0,1.91,0,2.86,0,.57,0,1.13,0,1.69.11s.81.11.36.58a7.05,7.05,0,0,1-1.05,1s0,0,0,0a3,3,0,0,0,1.88-1.25C306.48,223.84,305.65,223.55,305,223.37Z" style="opacity: 0.2; transform-origin: 295.222px 227.137px 0px;" class="animable"></path></g><path d="M279.82,224.55c-5-3.84-17.24-8.34-22.94-6.4s-9.45,3.87-6.71,5.57a15.85,15.85,0,0,1,6.26,9.06c1.41,4.89-.58,7.16-.58,7.16s7-.35,10.35,5.37c1.51-5.5,3.77-8.55,7.51-10.47s5.27-3.29,5.87-4.8Z" style="fill: rgb(186, 104, 200); transform-origin: 264.537px 231.497px 0px;" id="elddivicriq3v" class="animable"></path><g id="elotjdwjpx7z8"><path d="M282.22,225.36a22,22,0,0,0-2.59,1.24,19.25,19.25,0,0,0-2.49-1,29.63,29.63,0,0,0-4.56-1.38,31.94,31.94,0,0,0-4.67-.62,8.24,8.24,0,0,0-4.67.77c-.19.11-.12.47,0,.58a3.28,3.28,0,0,0,2.08.63s0,0,0,0a3.77,3.77,0,0,1-1.37-.69,21.67,21.67,0,0,1,9,.64,34.18,34.18,0,0,1,4.07,1.26c.45.17.88.37,1.33.56l-.19.1c-1.36.72-2.73,1.43-4.11,2.11s-2.67,1.31-4,1.94a10.74,10.74,0,0,1-2.91,1.07,10.12,10.12,0,0,1,1.39-1.22c.67-.48,1.44-.81,2.06-1.35,0,0,.05-.14,0-.14-1.78-.18-3.61,1.59-4.64,2.86-.17.2,0,.75.27.78a7,7,0,0,0,3.65-.82c1.47-.65,2.93-1.33,4.38-2s2.89-1.4,4.32-2.12l1.14-.57a1.41,1.41,0,0,0,1,.16c.2-.05.17-.34.08-.47a2,2,0,0,0-.14-.16,15.49,15.49,0,0,0,1.91-1.17C282.83,226,282.59,225.21,282.22,225.36Z" style="opacity: 0.2; transform-origin: 272.899px 228.521px 0px;" class="animable"></path></g><path d="M279.61,222.58c-1.36,2.48-1.36,7.21.7,9.21s3.87.93,3.87.93a3.91,3.91,0,0,0,5.18-2.47,9,9,0,0,0-.68-7.08C286.23,218.9,281,220.1,279.61,222.58Z" style="fill: rgb(186, 104, 200); transform-origin: 284.227px 226.672px 0px;" id="elfmtp8td2rwd" class="animable"></path><g id="elsd8zl1uy5z"><g style="opacity: 0.1; transform-origin: 284.227px 226.672px 0px;" class="animable"><path d="M279.61,222.58c-1.36,2.48-1.36,7.21.7,9.21s3.87.93,3.87.93a3.91,3.91,0,0,0,5.18-2.47,9,9,0,0,0-.68-7.08C286.23,218.9,281,220.1,279.61,222.58Z" id="el1zvdsner0ea" style="transform-origin: 284.227px 226.672px 0px;" class="animable"></path></g></g><path d="M277.68,143.25c24.82,2.41,40.07,25.35,46.85,41.24,3.3,7.71-11.27,32.59-33.74,37.12-26.71,5.39-51.8-10.78-61.86-25.69C220.1,182.83,246.31,144.61,277.68,143.25Z" style="fill: rgb(69, 90, 100); transform-origin: 276.096px 182.96px 0px;" id="elap6483cm5vg" class="animable"></path><path d="M273.72,199.7a4.6,4.6,0,0,0,1,2.89c.48-.05,1-2.49,1-2.49Z" style="fill: rgb(255, 255, 255); transform-origin: 274.72px 201.145px 0px;" id="el6owjz7ddq39" class="animable"></path><path d="M295.62,199.88a4.64,4.64,0,0,1-1,2.88c-.48,0-1-2.49-1-2.49Z" style="fill: rgb(255, 255, 255); transform-origin: 294.62px 201.32px 0px;" id="elu85vhqfz3xe" class="animable"></path><path d="M306.63,178.34a6.53,6.53,0,0,1-4.4,7.27c-2.67.86-6.72-.81-7.59-2.65a6.64,6.64,0,0,1,5.37-7C302.79,175.63,304.59,176.67,306.63,178.34Z" style="fill: rgb(186, 104, 200); transform-origin: 300.67px 180.871px 0px;" id="ely2zsv3zyq4q" class="animable"></path><path d="M297,181.43c.31,2.53,2.12,4.38,4,4.14s3.24-2.47,2.93-5-2.13-4.38-4.05-4.14S296.66,178.91,297,181.43Z" style="fill: rgb(55, 71, 79); transform-origin: 300.46px 181px 0px;" id="ell0pmbb8c0zl" class="animable"></path><path d="M301.82,178.23a1.37,1.37,0,1,0,1.3-1.44A1.37,1.37,0,0,0,301.82,178.23Z" style="fill: rgb(255, 255, 255); transform-origin: 303.188px 178.158px 0px;" id="el5yw75nlb7ua" class="animable"></path><path d="M302.2,181.61c0-.12.24-.27.38-.33a2.38,2.38,0,0,1,.51-.18,2.13,2.13,0,0,1,1.25.06.84.84,0,0,1,.46.75c0,.13,0,.32-.12.39a.7.7,0,0,1-.4.09,2.68,2.68,0,0,1-.75-.3,4.26,4.26,0,0,0-1.11-.31C302.24,181.75,302.19,181.69,302.2,181.61Z" style="fill: rgb(255, 255, 255); transform-origin: 303.499px 181.713px 0px;" id="elm7b6wk0amrl" class="animable"></path><path d="M259.9,178.34a6.52,6.52,0,0,0,4.39,7.27c2.67.86,6.72-.81,7.59-2.65a6.63,6.63,0,0,0-5.37-7C263.73,175.63,261.93,176.67,259.9,178.34Z" style="fill: rgb(186, 104, 200); transform-origin: 265.854px 180.871px 0px;" id="el5mf51g5f31s" class="animable"></path><path d="M269.64,181.44c-.31,2.53-2.16,4.38-4.14,4.13s-3.32-2.48-3-5,2.16-4.37,4.13-4.13S270,178.92,269.64,181.44Z" style="fill: rgb(55, 71, 79); transform-origin: 266.075px 181.006px 0px;" id="elowc5su9gs7" class="animable"></path><circle cx="263.12" cy="178.34" r="1.37" style="fill: rgb(255, 255, 255); transform-origin: 263.12px 178.34px 0px;" id="elowxlzreuokr" class="animable"></circle><path d="M264.27,181.74c0-.12-.25-.26-.39-.32a5.08,5.08,0,0,0-.52-.15,2.06,2.06,0,0,0-1.25.13.83.83,0,0,0-.42.77.48.48,0,0,0,.14.38.64.64,0,0,0,.41.07,2.42,2.42,0,0,0,.73-.34,4.65,4.65,0,0,1,1.09-.36C264.24,181.88,264.29,181.81,264.27,181.74Z" style="fill: rgb(255, 255, 255); transform-origin: 262.981px 181.927px 0px;" id="elzji9iz0bbx9" class="animable"></path><path d="M254,187l.06,0a.8.8,0,0,0,.22-1.07c-2.29-3.83-6.57-8.22-13.95-7.34a.74.74,0,0,0-.62.85.75.75,0,0,0,.81.68c6.62-.78,10.47,3.17,12.54,6.63A.71.71,0,0,0,254,187Z" style="fill: rgb(38, 50, 56); transform-origin: 247.049px 182.781px 0px;" id="elp732of9ba6q" class="animable"></path><path d="M251.93,188.86a.55.55,0,0,0,.2-.15.8.8,0,0,0,0-1.09c-2.45-2.51-7.3-3.64-10.13-3.08a.78.78,0,0,0,.3,1.52c2.46-.49,6.77.55,8.83,2.66A.69.69,0,0,0,251.93,188.86Z" style="fill: rgb(38, 50, 56); transform-origin: 246.902px 186.665px 0px;" id="el1j0e44i4o1k" class="animable"></path><path d="M252.23,192a.77.77,0,0,0,.3-.34.81.81,0,0,0-.38-1,14.8,14.8,0,0,0-13.67,1.11.79.79,0,0,0-.24,1.06.71.71,0,0,0,1,.28h0a13.35,13.35,0,0,1,12.33-1.05A.67.67,0,0,0,252.23,192Z" style="fill: rgb(38, 50, 56); transform-origin: 245.355px 191.351px 0px;" id="el5fzdkyugtnl" class="animable"></path><path d="M315,187.09l-.06,0a.8.8,0,0,1-.21-1.07c2.33-3.81,6.65-8.16,14-7.22a.76.76,0,0,1,.62.86.77.77,0,0,1-.83.68c-6.61-.85-10.49,3.07-12.59,6.5A.73.73,0,0,1,315,187.09Z" style="fill: rgb(38, 50, 56); transform-origin: 321.984px 182.918px 0px;" id="elmn2a08zn5wp" class="animable"></path><path d="M317.05,188.94a.9.9,0,0,1-.19-.15.81.81,0,0,1,0-1.1c2.47-2.48,7.33-3.57,10.15-3a.77.77,0,0,1-.3,1.51c-2.47-.5-6.78.49-8.86,2.59A.72.72,0,0,1,317.05,188.94Z" style="fill: rgb(38, 50, 56); transform-origin: 322.128px 186.772px 0px;" id="elxhy9m1d9l7p" class="animable"></path><path d="M316.73,192.12a.79.79,0,0,1-.3-.35.82.82,0,0,1,.39-1A14.85,14.85,0,0,1,330.48,192a.79.79,0,0,1,.23,1.06.72.72,0,0,1-1,.28h0a13.33,13.33,0,0,0-12.32-1.16A.67.67,0,0,1,316.73,192.12Z" style="fill: rgb(38, 50, 56); transform-origin: 323.603px 191.547px 0px;" id="el9oyxl1yujgm" class="animable"></path><path d="M293,201a7.61,7.61,0,0,1-4.24-1.27,9.78,9.78,0,0,1-3.57-4.43,9.37,9.37,0,0,1-3.16,3.85,9.71,9.71,0,0,1-9.93.74.75.75,0,0,1-.37-1,.76.76,0,0,1,1-.37,8.23,8.23,0,0,0,8.41-.61,7.67,7.67,0,0,0,3.27-5.74,9.49,9.49,0,0,1,0-1.19.75.75,0,0,1,.73-.73h0a.76.76,0,0,1,.75.68,8,8,0,0,1,0,1.2,8.79,8.79,0,0,0,3.65,6.33,6.64,6.64,0,0,0,6.88.17.76.76,0,0,1,.66,1.37A9.52,9.52,0,0,1,293,201Z" style="fill: rgb(38, 50, 56); transform-origin: 284.585px 195.625px 0px;" id="el9xx28cfydgw" class="animable"></path><path d="M285.11,193.13c1.27,0,4.57-2.66,4.86-4.7s-10-1.58-10.11,0C279.63,190.74,283.85,193.11,285.11,193.13Z" style="fill: rgb(38, 50, 56); transform-origin: 284.913px 190.099px 0px;" id="el4zwgx8w7ol9" class="animable"></path><path d="M251.5,149.91c12.72,11.75,37.2,20,55.11,21.56l-.45-7.3,5.47,7.3s7.68-.2,19.5-5.82c9.76-4.65,22.71-12.3,33.46-13.32-11.39-5.62-33.67,5.11-58.46-5.62C306.13,146.71,273.5,153.83,251.5,149.91Z" style="fill: rgb(186, 104, 200); transform-origin: 308.045px 159.09px 0px;" id="el4eamnnuchkf" class="animable"></path><g id="elpht2a38nags"><path d="M251.5,149.91c12.72,11.75,37.2,20,55.11,21.56l-.45-7.3,5.47,7.3s7.68-.2,19.5-5.82c9.76-4.65,22.71-12.3,33.46-13.32-11.39-5.62-33.67,5.11-58.46-5.62C306.13,146.71,273.5,153.83,251.5,149.91Z" style="opacity: 0.15; transform-origin: 308.045px 159.09px 0px;" class="animable"></path></g><path d="M313.35,149.17C307.88,130.1,302,110.39,301,105c-1.37-8.06-1.31-13.18,3-14.48,6-1.81,9.45.15,12,3.87,3.19,4.72-3.63,7.75-4.7,16.57-1.56,12.77,15.41,14,18,9.48-12.4,1-10.18-10.89-5.18-12.69,5.63-2,11.3-4.2,12.38-8.22s1.2-11.18-12.38-21.47-41.65-18.8-56.86-.41S247,104.13,232.92,149.21C237.07,154.12,291.28,161.83,313.35,149.17Z" style="fill: rgb(186, 104, 200); transform-origin: 284.929px 111.459px 0px;" id="eloqqeqjaiv5q" class="animable"></path><g id="eli5xfftgm9f"><g style="opacity: 0.3; transform-origin: 286.109px 107.996px 0px;" class="animable"><path d="M311.33,111a10,10,0,0,0,1.75,7.37c1.43-1.7,3.88-3.89,7.14-4.18a8,8,0,0,1,.83-3.36C318.12,109.83,314.14,109.68,311.33,111Z" id="el75fdajmo5qv" style="transform-origin: 316.13px 114.207px 0px;" class="animable"></path><path d="M301.87,91.86c-3.67-2.14-11.38-7-17-12.8a39.69,39.69,0,0,1-6.85-9.53,28.63,28.63,0,0,0-10.72,8.11l-2.23,2.71c8.6,8.13,25.72,17.21,35.21,19C300.08,95.93,300.46,93.39,301.87,91.86Z" id="eljzfbnbenvuc" style="transform-origin: 283.47px 84.44px 0px;" class="animable"></path><path d="M318.1,94.43c3.56-5.23,9.67-8.07,13.73-9.46a51.17,51.17,0,0,0-7.63-6.92l0,0c-4.5,3.59-7.64,11.29-9,15.19.3.36.59.75.87,1.16a4.49,4.49,0,0,1,.84,2.38c5.48-.82,13.51-.8,18.8,4.6a5.73,5.73,0,0,0,.9-1.84,12,12,0,0,0,.22-5.4C331.84,91.87,324.77,92,318.1,94.43Z" id="elflua3khhrrj" style="transform-origin: 326.119px 89.715px 0px;" class="animable"></path><path d="M310.83,140.43c-1.26-4.33-2.49-8.58-3.64-12.56-15.93,6.26-48.62,4.34-65.32-5.63-2,5.61-4.23,12.12-6.69,19.84,5,1.37,24.6,6.71,24.94,6.41s33.39-4.06,33.39-4.06Z" id="elnlxj73lumv" style="transform-origin: 273.005px 135.371px 0px;" class="animable"></path><path d="M315.67,100.47c-.66,1.18-1.5,2.46-2.27,4,3.54,0,6.85,2.08,9.34,4.18a4.67,4.67,0,0,1,1.46-.87,62.84,62.84,0,0,0,6.66-2.71C327.44,101.32,321.57,100.18,315.67,100.47Z" id="elire7ehnw43h" style="transform-origin: 322.13px 104.539px 0px;" class="animable"></path><path d="M299.26,67.49c1.25,7.17,5,17,8.63,22.35a8.49,8.49,0,0,1,4.58,1.06c-1.3-6.54-.23-14.29.77-19.2A58.85,58.85,0,0,0,299.26,67.49Z" id="elqjk12zv2ijr" style="transform-origin: 306.25px 79.195px 0px;" class="animable"></path><path d="M304.09,117c-1.54-5.51-2.65-9.76-3-11.91-7.68.94-32.09,2.8-47.61-8.58a114.36,114.36,0,0,0-6.86,13.68C264.13,119.47,289.47,120.47,304.09,117Z" id="elya2497okjh8" style="transform-origin: 275.355px 107.675px 0px;" class="animable"></path></g></g><path d="M274.92,143.4c-20.18.69-34.59-4.44-38.3-6.07-1.17,3.75-2.39,7.7-3.7,11.88,4.15,4.91,58.36,12.62,80.43,0-1-3.52-2.05-7.5-3.3-11.5C308,138.67,300.46,142.54,274.92,143.4Z" style="fill: rgb(38, 50, 56); transform-origin: 273.135px 146.703px 0px;" id="elm5zrid43m1" class="animable"></path><path d="M290.8,148.91a11,11,0,1,1-10.94-11.58h.33a8.61,8.61,0,1,0,10.61,11.57Z" style="fill: rgb(255, 255, 255); transform-origin: 279.808px 148.33px 0px;" id="elnm2jkzmuqj" class="animable"></path><path d="M271.18,162.09c-9.53-4.76-24.51-15.29-41.49-30.1s-34.09-13.74-39.81-1.89l9.55,10.73H187.71s-1.55,9.29,9,25.68c6.9,10.76,26.08,20.77,30.5,22.58,0,0,.65-10.75,10-22.58C244.26,161.87,253.29,159.3,271.18,162.09Z" style="fill: rgb(186, 104, 200); transform-origin: 229.405px 155.068px 0px;" id="elqxb0lxo2cmf" class="animable"></path><g id="el1cjxzu88zhl"><path d="M271.18,162.09c-9.53-4.76-24.51-15.29-41.49-30.1s-34.09-13.74-39.81-1.89l9.55,10.73H187.71s-1.55,9.29,9,25.68c6.9,10.76,26.08,20.77,30.5,22.58,0,0,.65-10.75,10-22.58C244.26,161.87,253.29,159.3,271.18,162.09Z" style="opacity: 0.35; transform-origin: 229.405px 155.068px 0px;" class="animable"></path></g><g id="el0xelq9xezmr"><path d="M237.17,166.51c7.09-4.64,16.12-7.21,34-4.42h0c-7.31-3.65-17.84-10.71-30-20.49h0c-6,4.44-5.06,12.12-5.06,12.12a10.57,10.57,0,0,0-8.91,2s4.2,2.28,5.73,5c1.11,2-11.35,17.57-9.83,26.43,1.8.92,3.24,1.6,4.1,2C227.19,189.09,227.84,178.34,237.17,166.51Z" style="opacity: 0.15; transform-origin: 247.071px 165.375px 0px;" class="animable"></path></g><path d="M255.62,93.05A119.37,119.37,0,0,0,244.22,116c6.14,3.5,15.15,4.2,16.61,3.89,2.08-.45,9.34-17.1,8.68-18.73C268.94,99.71,263.68,98.57,255.62,93.05Z" style="fill: rgb(186, 104, 200); transform-origin: 256.886px 106.503px 0px;" id="el4gygf9jgx42" class="animable"></path><g id="ellbhxrpe29xl"><path d="M255.62,93.05A119.37,119.37,0,0,0,244.22,116c6.14,3.5,15.15,4.2,16.61,3.89,2.08-.45,9.34-17.1,8.68-18.73C268.94,99.71,263.68,98.57,255.62,93.05Z" style="opacity: 0.15; transform-origin: 256.886px 106.503px 0px;" class="animable"></path></g><path d="M270.29,98.17a1.51,1.51,0,0,0-.74.19l-.54.23-1.2.51-1.15.5a5.14,5.14,0,0,0-.58.27,2.44,2.44,0,0,0-.66.58.48.48,0,0,0,0,.57s0,0,0,0a.21.21,0,0,0,.13,0,1.33,1.33,0,0,0,.4,0,3.39,3.39,0,0,0,.78-.17l1.33-.47,1.34-.47c.22-.07.44-.16.65-.24s.59-.15.71-.42S270.82,98.23,270.29,98.17Z" style="fill: rgb(55, 71, 79); transform-origin: 268.069px 99.6026px 0px;" id="elq03zkchk7ck" class="animable"></path><path d="M271.21,104.06c0-.23-.21-.62-.5-.62-.79,0-1.57,0-2.36,0-.38,0-.77,0-1.15-.07a7.93,7.93,0,0,0-1.09,0c-.3,0-.36.63-.09.74a6,6,0,0,0,1.24.39c.41.07.81.13,1.22.17a12.44,12.44,0,0,0,2.44.06C271.2,104.7,271.24,104.25,271.21,104.06Z" style="fill: rgb(55, 71, 79); transform-origin: 268.533px 104.057px 0px;" id="elmxzldtp9x1" class="animable"></path><path d="M265.12,120.69a1.42,1.42,0,0,0-.36-.67l-.34-.47-.79-1c-.26-.33-.51-.67-.76-1a6.4,6.4,0,0,0-.41-.5,2.69,2.69,0,0,0-.71-.5.51.51,0,0,0-.56.15l0,0a.19.19,0,0,0,0,.13,1.34,1.34,0,0,0,.07.4,3.42,3.42,0,0,0,.35.72l.77,1.18.78,1.18.39.58c.15.22.29.53.57.59C264.52,121.54,265.2,121.23,265.12,120.69Z" style="fill: rgb(55, 71, 79); transform-origin: 263.153px 119.004px 0px;" id="el1go2vhzok1" class="animable"></path><path d="M259.63,123c.21-.1.55-.36.48-.64-.18-.76-.4-1.52-.57-2.29-.08-.37-.14-.75-.2-1.13a7.7,7.7,0,0,0-.27-1c-.08-.3-.69-.2-.73.08a6.32,6.32,0,0,0-.09,1.3c0,.41.07.82.13,1.23a12.21,12.21,0,0,0,.53,2.38C259,123.15,259.45,123.08,259.63,123Z" style="fill: rgb(55, 71, 79); transform-origin: 259.183px 120.417px 0px;" id="elgn6fivrljhe" class="animable"></path><path d="M296.34,154.6c2.9-6.95,10.84-15.5,18.42-12.81,4.26,1.52.36,21.2.36,21.2S310.05,155.62,296.34,154.6Z" style="fill: rgb(55, 71, 79); transform-origin: 306.546px 152.136px 0px;" id="elz9f1gupdfq" class="animable"></path><path d="M314.76,141.79c-2.55-.44-8.39,3.4-11.3,14.06,8.38,2.39,11.66,7.14,11.66,7.14S319,143.31,314.76,141.79Z" style="fill: rgb(255, 168, 167); transform-origin: 310.101px 152.373px 0px;" id="el33up9spq7di" class="animable"></path><path d="M305.13,156.38c7.15,2.51,10,6.61,10,6.61s1-5.09,1.44-10.3a16,16,0,0,0-6.42.16c-.66-1.92.56-4.36.56-4.36C308.23,148.46,305.07,152.31,305.13,156.38Z" style="fill: rgb(242, 143, 143); transform-origin: 310.85px 155.74px 0px;" id="el7y30cvoyp3l" class="animable"></path><path d="M306.55,156.91c0-3,1.95-6,4.36-6.49,0,0-.74,2.58.22,4.27,0,0,6.71-2.52,9.52.16a11.3,11.3,0,0,0-5.53,8.14C312,159.09,306.55,156.91,306.55,156.91Z" style="fill: rgb(69, 90, 100); transform-origin: 313.6px 156.705px 0px;" id="el9c2fewm4uw7" class="animable"></path><path d="M261.69,161.07c-2.06-8.43-9.57-19.55-18.66-17.84-5.12,1-4.18,24-4.18,24S246.08,160.94,261.69,161.07Z" style="fill: rgb(55, 71, 79); transform-origin: 250.236px 155.142px 0px;" id="el4w9qjxmtgp7" class="animable"></path><path d="M243,143.23c3,0,9.3,5.74,10.72,18.37a37.78,37.78,0,0,0-14.9,5.66S237.91,144.19,243,143.23Z" style="fill: rgb(255, 168, 167); transform-origin: 246.238px 155.245px 0px;" id="elqotprf5rqgm" class="animable"></path><path d="M251.7,162c-8.58,2.22-12.85,5.31-12.85,5.31s-.24-6,.19-12a18.29,18.29,0,0,1,7.27,1.33c1.1-2.07.14-5.06.14-5.06C249.26,152,252.5,157.33,251.7,162Z" style="fill: rgb(242, 143, 143); transform-origin: 245.303px 159.445px 0px;" id="el4yqrvev8tq4" class="animable"></path><path d="M250.52,162.39c.5-3.39-2-7.68-4.65-8.67,0,0,.38,3.06-1,4.82,0,0-7.17-4.06-10.85-1.52a14.72,14.72,0,0,1,4.61,10.67C242.9,165,250.52,162.39,250.52,162.39Z" style="fill: rgb(69, 90, 100); transform-origin: 242.302px 160.705px 0px;" id="elux8s78lie5" class="animable"></path></g></g><g id="freepik--Skull--inject-3" style="transform-origin: 86.3024px 344.283px 0px;" class="animable"><g id="freepik--skull--inject-3" style="transform-origin: 86.3024px 344.283px 0px;" class="animable"><g id="freepik--leaves--inject-3" style="transform-origin: 62.8952px 309.743px 0px;" class="animable"><path d="M52.85,279.92A7.1,7.1,0,0,1,55.58,268s2,3.64.92,7.23A7.29,7.29,0,0,1,52.85,279.92Z" style="fill: rgb(186, 104, 200); transform-origin: 53.7264px 273.96px 0px;" id="eloyf68uywf5n" class="animable"></path><path d="M54.52,275c-1.89,6.1-1.17,13.42-.4,19.66a82.47,82.47,0,0,0,4.28,18.55,71.12,71.12,0,0,0,11.27,19.52,98.57,98.57,0,0,0,7.63,8.46c3.13,3.12,6.67,5.87,9.69,9.09.65.7-.63,1.5-1.26,1.1-6.62-4.12-12.46-10.56-17.35-16.56a72.11,72.11,0,0,1-12.26-21.19c-4.29-12-6.49-26.72-1.91-38.9.11-.27.37.09.31.27Z" style="fill: rgb(55, 71, 79); transform-origin: 69.4181px 313.06px 0px;" id="eljbvuz74ymq" class="animable"></path><path d="M57.89,332.72s-3.72,4.13-9.45.07S41.63,320,41.63,320s8.08,1.12,11.87,3.78C58,327,58,329.89,57.89,332.72Z" style="fill: rgb(186, 104, 200); transform-origin: 49.7739px 327.288px 0px;" id="eltxvuy5awjnn" class="animable"></path><path d="M72.61,325.92s-4.93-2.55-2.45-9.12S80.78,307,80.78,307s1,8.1-.66,12.44C78.19,324.61,75.38,325.34,72.61,325.92Z" style="fill: rgb(186, 104, 200); transform-origin: 75.2705px 316.46px 0px;" id="el75dde5mntc2" class="animable"></path><path d="M50,313.15a7.76,7.76,0,0,1-7.43-1.91c-3.56-3.25-2.32-9.82-2.32-9.82s6.74.28,9.42,4.28A6.77,6.77,0,0,1,50,313.15Z" style="fill: rgb(186, 104, 200); transform-origin: 45.5004px 307.421px 0px;" id="elmup37m237u" class="animable"></path><path d="M65.43,307.21a7.76,7.76,0,0,1-2-7.42c1.11-4.69,7.44-6.81,7.44-6.81s3,6,.86,10.32A6.76,6.76,0,0,1,65.43,307.21Z" style="fill: rgb(186, 104, 200); transform-origin: 67.8397px 300.096px 0px;" id="elrrfdrm66dq" class="animable"></path><path d="M47.6,295.38a7.34,7.34,0,0,1-6.45-2.18c-3.09-3-2.48-9.28-2.48-9.28s6.17,1,7.83,3S47.6,295.38,47.6,295.38Z" style="fill: rgb(186, 104, 200); transform-origin: 43.156px 289.695px 0px;" id="eldugr424xirm" class="animable"></path><path d="M66.2,276.24A6.83,6.83,0,0,0,61,279.29c-2.22,3.07-.86,8.15-.86,8.15s5.1-2,6.24-4S66.2,276.24,66.2,276.24Z" style="fill: rgb(186, 104, 200); transform-origin: 63.2858px 281.84px 0px;" id="el90jrm2j4hk" class="animable"></path><path d="M47.17,325.33c1,.76,2.09,1.42,3.12,2.12s2.14,1.36,3.24,2c2.21,1.29,4.52,2.45,6.85,3.53s4.43,1.94,6.68,2.82,4.38,1.34,6.52,2.15c.62.23.07,1.13-.43,1.12-2.2,0-4.47-1-6.51-1.79-2.26-.87-4.51-1.8-6.71-2.81A54,54,0,0,1,53.4,331c-1.22-.78-2.36-1.63-3.5-2.52A33.3,33.3,0,0,1,47,325.73c-.11-.11-.06-.55.13-.4Z" style="fill: rgb(55, 71, 79); transform-origin: 60.3991px 332.185px 0px;" id="elf2hlco2ipq" class="animable"></path><path d="M43.8,306.08c.61,1.45,2.2,2.63,3.38,3.6s2.48,2.14,3.76,3.15a40.82,40.82,0,0,0,4.15,2.87l2.59,1.54A8,8,0,0,1,60,318.8c.25.31-.07,1-.51.92a12.42,12.42,0,0,1-2.8-1.34c-.92-.5-1.86-1-2.76-1.51a40.6,40.6,0,0,1-4.53-3.19c-2.44-2-5.34-4.25-5.93-7.49,0-.23.19-.36.29-.11Z" style="fill: rgb(55, 71, 79); transform-origin: 51.7789px 312.835px 0px;" id="el2386cc7mhq8" class="animable"></path><path d="M75.69,315.53a30.72,30.72,0,0,1-1.5,4.65,25.79,25.79,0,0,1-1.88,4.19,20.8,20.8,0,0,1-2.53,3.43c-.85.91-2,2.21-3.34,2.39-.36.05-.91-.29-.68-.73.34-.63,1.26-1,1.8-1.47a11.49,11.49,0,0,0,1.32-1.29,27.23,27.23,0,0,0,2.23-2.9,27.48,27.48,0,0,0,4.24-8.51c.09-.35.4,0,.34.24Z" style="fill: rgb(55, 71, 79); transform-origin: 70.7016px 322.669px 0px;" id="el435w4wwrkww" class="animable"></path><path d="M68.87,297.89a9.65,9.65,0,0,1,0,2.08,24.4,24.4,0,0,1-.62,2.69A28.77,28.77,0,0,1,62.9,313c-1,1.24-2,3.3-3.75,3.52a.46.46,0,0,1-.54-.51,4.82,4.82,0,0,1,1.23-1.82c.47-.59.89-1.21,1.37-1.8a36.06,36.06,0,0,0,2.88-4,37.36,37.36,0,0,0,2.46-4.69,22.15,22.15,0,0,0,1-2.73c.29-1,.64-2,.87-3a.24.24,0,1,1,.48,0Z" style="fill: rgb(55, 71, 79); transform-origin: 63.7663px 307.129px 0px;" id="elemoh9xxssej" class="animable"></path><path d="M41.81,288.89a33.51,33.51,0,0,0,3.43,3.52c1.13,1,2.18,2.15,3.32,3.18s2.06,1.78,3.08,2.69a11.7,11.7,0,0,1,2.74,2.88c.26.49-.45,1.28-.93.87-1.14-1-2.14-2.14-3.28-3.14S48,297,47,296s-1.92-2-2.8-3.08a29.82,29.82,0,0,1-2.55-3.75c-.1-.17,0-.5.2-.26Z" style="fill: rgb(55, 71, 79); transform-origin: 48.0232px 295.485px 0px;" id="eldeiu8cctg3l" class="animable"></path><path d="M63.71,281.6a20.91,20.91,0,0,1-.59,2.33,21.65,21.65,0,0,1-1,2.26,38.23,38.23,0,0,1-2.25,4.12,28.32,28.32,0,0,1-3,3.5,18.66,18.66,0,0,1-3.23,3.05c-.81.52-1.47-.48-.69-1a18.21,18.21,0,0,0,2.71-2.77,39.25,39.25,0,0,0,2.7-3.07c.84-1.14,1.53-2.41,2.3-3.6.36-.55.71-1.11,1-1.68a14.4,14.4,0,0,0,1.57-3.26c.11-.39.49-.17.42.16Z" style="fill: rgb(55, 71, 79); transform-origin: 58.1556px 289.139px 0px;" id="el5amp207xsil" class="animable"></path></g><g id="freepik--leaves--inject-3" style="transform-origin: 41.5816px 379.115px 0px;" class="animable"><path d="M63.43,385.64C67.27,367,56,358.87,30.29,355.35c0,0-2.78,14,3.36,22.63C41.31,388.79,57.09,390.9,63.43,385.64Z" style="fill: rgb(186, 104, 200); transform-origin: 46.9127px 371.874px 0px;" id="eldt4p6ioycqa" class="animable"></path><g id="el766u3zik6wq"><path d="M63.43,385.64C67.27,367,56,358.87,30.29,355.35c0,0-2.78,14,3.36,22.63C41.31,388.79,57.09,390.9,63.43,385.64Z" style="opacity: 0.3; transform-origin: 46.9127px 371.874px 0px;" class="animable"></path></g><g id="elammzybc9fvv"><path d="M34.86,359.17c6.85,4.7,24.08,15.6,28.57,26.47l.73-4.17S61.32,371.77,34.86,359.17Z" style="opacity: 0.2; transform-origin: 49.51px 372.405px 0px;" class="animable"></path></g><path d="M63.87,387.83C54.06,371.5,40.28,373.17,19,388c0,0,7.41,12.16,17.79,14.38C49.73,405.13,62.77,396,63.87,387.83Z" style="fill: rgb(186, 104, 200); transform-origin: 41.435px 389.55px 0px;" id="elmqp1a0paz9f" class="animable"></path><g id="eldnw7pdsrsxl"><path d="M63.87,387.83C54.06,371.5,40.28,373.17,19,388c0,0,7.41,12.16,17.79,14.38C49.73,405.13,62.77,396,63.87,387.83Z" style="opacity: 0.2; transform-origin: 41.435px 389.55px 0px;" class="animable"></path></g><g id="elweydy3pt799"><path d="M24.93,387.71c8.22-1.18,28.28-4.83,38.94.12l-2.28-3.56S52.92,379.06,24.93,387.71Z" style="opacity: 0.2; transform-origin: 44.4px 385.272px 0px;" class="animable"></path></g></g><g id="freepik--skull--inject-3" style="transform-origin: 106.502px 373.439px 0px;" class="animable"><path d="M151.81,354.93c-7.09-22.37-33.13-34.07-58.16-26.13-19.08,6-32.05,21.75-34,38.77h0c0,.31-.07.66-.1,1a38.15,38.15,0,0,0,0,6.76c.5,11.11,3,27.68,5.57,31.18,2.92,4,5.65,1.68,5.65,1.68s-.7,6.65,5.23,8.4c5.55,1.63,8.7-.94,8.7-.94a9.77,9.77,0,0,0,9,4.89c9-.54,8.5-7.72,14.56-8.53h0a45.2,45.2,0,0,0,11.07-2.25C144.35,401.85,158.9,377.29,151.81,354.93Z" style="fill: rgb(186, 104, 200); transform-origin: 106.502px 373.434px 0px;" id="el7wk0l45dbcu" class="animable"></path><g id="ely6yiga57j6l"><path d="M151.81,354.93c-7.09-22.37-33.13-34.07-58.16-26.13-19.08,6-32.05,21.75-34,38.77h0c0,.31-.07.66-.1,1a38.15,38.15,0,0,0,0,6.76c.5,11.11,3,27.68,5.57,31.18,2.92,4,5.65,1.68,5.65,1.68s-.7,6.65,5.23,8.4c5.55,1.63,8.7-.94,8.7-.94a9.77,9.77,0,0,0,9,4.89c9-.54,8.5-7.72,14.56-8.53h0a45.2,45.2,0,0,0,11.07-2.25C144.35,401.85,158.9,377.29,151.81,354.93Z" style="fill: rgb(255, 255, 255); opacity: 0.85; transform-origin: 106.502px 373.434px 0px;" class="animable"></path></g><g id="eldhtlv5cyh17"><path d="M115.45,405.62c-13.71,1.57-13.3,3.46-16.25,9s-7,5.65-12,3.92a9.36,9.36,0,0,0,6.51,2c9-.54,8.5-7.72,14.56-8.53a45.2,45.2,0,0,0,11.07-2.25c20.18-6.4,33.54-23.59,34.25-41.74-1.62,7.83-6.88,18.14-15.67,26.27C132.61,399.2,121.42,404.94,115.45,405.62Z" style="fill: rgb(186, 104, 200); opacity: 0.15; transform-origin: 120.395px 394.293px 0px;" class="animable"></path></g><path d="M90.24,377.38c3.81-5.26,13.78-9.64,20.16-5.12,4.48,3.16,7.11,12.38,1,19.24s-17.77,4.56-21.17,0A12.27,12.27,0,0,1,90.24,377.38Z" style="fill: rgb(186, 104, 200); transform-origin: 101.492px 383.101px 0px;" id="eljr80lbfx0bm" class="animable"></path><g id="elt4jh43m2wmq"><path d="M90.24,377.38c3.81-5.26,13.78-9.64,20.16-5.12,4.48,3.16,7.11,12.38,1,19.24s-17.77,4.56-21.17,0A12.27,12.27,0,0,1,90.24,377.38Z" style="fill: rgb(255, 255, 255); opacity: 0.4; transform-origin: 101.492px 383.101px 0px;" class="animable"></path></g><path d="M110.4,372.26c-3.41-2.42-7.84-2.29-11.81-.85a14.91,14.91,0,0,0-2.69,2.78,12.31,12.31,0,0,0-.05,14.13c2.44,3.27,9.1,5.38,15,3.78.19-.19.39-.39.57-.6C117.51,384.64,114.88,375.42,110.4,372.26Z" style="fill: rgb(55, 71, 79); transform-origin: 104.317px 381.511px 0px;" id="el4auj74dcic8" class="animable"></path><path d="M73.91,374.77c1.62-4.54.94-14.85-3.45-17-5.28-2.53-9,5.92-9.22,13.08s2.08,11.57,5.43,11.17S72.34,379.14,73.91,374.77Z" style="fill: rgb(186, 104, 200); transform-origin: 67.969px 369.679px 0px;" id="elguo3viajyqk" class="animable"></path><g id="el47gzp76vpv8"><path d="M73.91,374.77c1.62-4.54.94-14.85-3.45-17-5.28-2.53-9,5.92-9.22,13.08s2.08,11.57,5.43,11.17S72.34,379.14,73.91,374.77Z" style="fill: rgb(255, 255, 255); opacity: 0.4; transform-origin: 67.969px 369.679px 0px;" class="animable"></path></g><path d="M70.46,357.81a4.31,4.31,0,0,0-2-.45,21.94,21.94,0,0,0-3,10.57c-.27,7.15,2.08,11.57,5.43,11.17a8.15,8.15,0,0,0,.86-.16,16.09,16.09,0,0,0,2.13-4.17C75.53,370.23,74.85,359.92,70.46,357.81Z" style="fill: rgb(55, 71, 79); transform-origin: 70.071px 368.242px 0px;" id="elcru2fmukpo" class="animable"></path><path d="M79.23,384.58c-3.21-.9-8.09,10.83-7.34,13.76s3.82,2.47,5.09,1.31a3.84,3.84,0,0,0,5.67,2C85,400,82.45,385.49,79.23,384.58Z" style="fill: rgb(186, 104, 200); transform-origin: 77.689px 393.384px 0px;" id="elfw70hq2ooda" class="animable"></path><g id="el2703q560nf4"><path d="M79.23,384.58c-3.21-.9-8.09,10.83-7.34,13.76s3.82,2.47,5.09,1.31a3.84,3.84,0,0,0,5.67,2C85,400,82.45,385.49,79.23,384.58Z" style="fill: rgb(255, 255, 255); opacity: 0.4; transform-origin: 77.689px 393.384px 0px;" class="animable"></path></g><path d="M79.85,397.33a4.09,4.09,0,0,0,3.56,2.58c.73-4.26-1.49-14.57-4.18-15.33a1.23,1.23,0,0,0-.47,0c-2.41,3.38-4.51,9.47-4,11.47C75.51,399,78.57,398.49,79.85,397.33Z" style="fill: rgb(55, 71, 79); transform-origin: 79.1168px 392.234px 0px;" id="el454extlo1y4" class="animable"></path></g></g></g><g id="freepik--Sparkles--inject-3" style="transform-origin: 256.1px 170.43px 0px;" class="animable"><path d="M388.28,93.09c.14,12.9-.32,25.32-19,28.22C389,121,387.52,133.46,388.48,149c.53-15.54,1.89-26.7,17.24-27.43C389.85,118.94,390.27,111.58,388.28,93.09Z" style="fill: rgb(69, 90, 100); transform-origin: 387.5px 121.045px 0px;" id="elujqliocorw" class="animable"></path><path d="M115.49,88.93c.09,8.65-.22,17-12.72,18.93C116,107.68,115,116,115.62,126.44,116,116,116.89,108.53,127.19,108,116.54,106.27,116.82,101.33,115.49,88.93Z" style="fill: rgb(69, 90, 100); transform-origin: 114.98px 107.685px 0px;" id="eloc17vldkc2h" class="animable"></path><path d="M415.89,150.41c.1,9.72-.25,19.08-14.29,21.26,14.83-.2,13.71,9.15,14.44,20.86.39-11.71,1.42-20.11,13-20.67C417.07,169.88,417.38,164.34,415.89,150.41Z" style="fill: rgb(186, 104, 200); transform-origin: 415.32px 171.47px 0px;" id="elt1xusto26da" class="animable"></path><path d="M164,43.58c.12,12-.3,23.51-17.6,26.2,18.27-.25,16.89,11.27,17.78,25.7.49-14.43,1.76-24.78,16-25.46C165.41,67.58,165.8,60.75,164,43.58Z" style="fill: rgb(186, 104, 200); transform-origin: 163.29px 69.53px 0px;" id="elvbgfdgqkf5" class="animable"></path><path d="M161.28,130.91c.11,10.16-.26,19.93-14.92,22.21,15.49-.21,14.32,9.56,15.08,21.79.41-12.23,1.49-21,13.56-21.59C162.51,151.25,162.84,145.46,161.28,130.91Z" style="fill: rgb(186, 104, 200); transform-origin: 160.68px 152.91px 0px;" id="elpxock586d1q" class="animable"></path><path d="M370.38,40.34c.06,5.9-.15,11.57-8.67,12.9,9-.12,8.32,5.55,8.76,12.66.24-7.11.87-12.21,7.88-12.54C371.1,52.16,371.29,48.79,370.38,40.34Z" style="fill: rgb(240, 240, 240); transform-origin: 370.03px 53.12px 0px;" id="elnln41ub7tkf" class="animable"></path><path d="M459,89.21c.08,8.16-.21,16-12,17.84,12.46-.16,11.52,7.69,12.12,17.52.34-9.83,1.2-16.89,10.91-17.35C460,105.56,460.28,100.9,459,89.21Z" style="fill: rgb(224, 224, 224); transform-origin: 458.515px 106.89px 0px;" id="eluz32m5ay9x9" class="animable"></path><path d="M229.32,58.49c.09,8.16-.21,16-12,17.85,12.45-.17,11.51,7.68,12.12,17.51.33-9.83,1.19-16.89,10.9-17.35C230.31,74.84,230.58,70.18,229.32,58.49Z" style="fill: rgb(224, 224, 224); transform-origin: 228.83px 76.17px 0px;" id="elv62vtdd7zxg" class="animable"></path><path d="M434.68,22.65c.07,6.91-.18,13.57-10.17,15.13,10.56-.14,9.76,6.51,10.27,14.85.29-8.34,1-14.32,9.25-14.71C435.52,36.51,435.74,32.56,434.68,22.65Z" style="fill: rgb(240, 240, 240); transform-origin: 434.27px 37.64px 0px;" id="elg60qidmv62o" class="animable"></path><path d="M469.75,293.71c.07,6.92-.17,13.58-10.17,15.14,10.56-.15,9.76,6.51,10.28,14.84.28-8.33,1-14.31,9.24-14.71C470.59,307.58,470.82,303.63,469.75,293.71Z" style="fill: rgb(240, 240, 240); transform-origin: 469.34px 308.7px 0px;" id="els8bumetjum" class="animable"></path><path d="M453.5,209.29c.08,6.92-.17,13.58-10.17,15.13,10.56-.14,9.76,6.51,10.28,14.85.28-8.34,1-14.32,9.24-14.71C454.34,223.15,454.57,219.2,453.5,209.29Z" style="fill: rgb(240, 240, 240); transform-origin: 453.09px 224.28px 0px;" id="el3t4b6x7aw2y" class="animable"></path><path d="M41.77,236.89c.07-5.9-.15-11.58-8.67-12.9,9,.12,8.32-5.55,8.76-12.66.24,7.11.87,12.2,7.88,12.54C42.49,225.07,42.68,228.44,41.77,236.89Z" style="fill: rgb(240, 240, 240); transform-origin: 41.42px 224.11px 0px;" id="elfofqn5j681q" class="animable"></path><path d="M61.69,176.41c.09-8.17-.2-16-12-17.85,12.45.16,11.51-7.68,12.12-17.52.33,9.84,1.2,16.89,10.9,17.35C62.68,160.06,63,164.71,61.69,176.41Z" style="fill: rgb(224, 224, 224); transform-origin: 61.2px 158.725px 0px;" id="elds4rm0wogal" class="animable"></path><path d="M91.93,259.88c.08-6.92-.17-13.57-10.16-15.13,10.55.14,9.76-6.51,10.27-14.85.28,8.34,1,14.32,9.24,14.71C92.77,246,93,250,91.93,259.88Z" style="fill: rgb(240, 240, 240); transform-origin: 91.525px 244.89px 0px;" id="elwok856euvbs" class="animable"></path><path d="M48.41,88.47c.07-6.92-.17-13.58-10.17-15.13,10.56.14,9.76-6.52,10.28-14.85.28,8.33,1,14.31,9.24,14.71C49.25,74.61,49.48,78.55,48.41,88.47Z" style="fill: rgb(240, 240, 240); transform-origin: 48px 73.48px 0px;" id="eliuulogd3kl" class="animable"></path><path d="M99.26,47.15c.07-6.92-.17-13.58-10.17-15.14,10.56.15,9.76-6.51,10.28-14.84.28,8.33,1,14.31,9.24,14.71C100.1,33.28,100.33,37.23,99.26,47.15Z" style="fill: rgb(240, 240, 240); transform-origin: 98.85px 32.16px 0px;" id="elxzx6uhpxlj" class="animable"></path></g><defs>     <filter id="active" height="200%">         <feMorphology in="SourceAlpha" result="DILATED" operator="dilate" radius="2"></feMorphology>                <feFlood flood-color="#32DFEC" flood-opacity="1" result="PINK"></feFlood>        <feComposite in="PINK" in2="DILATED" operator="in" result="OUTLINE"></feComposite>        <feMerge>            <feMergeNode in="OUTLINE"></feMergeNode>            <feMergeNode in="SourceGraphic"></feMergeNode>        </feMerge>    </filter>    <filter id="hover" height="200%">        <feMorphology in="SourceAlpha" result="DILATED" operator="dilate" radius="2"></feMorphology>                <feFlood flood-color="#ff0000" flood-opacity="0.5" result="PINK"></feFlood>        <feComposite in="PINK" in2="DILATED" operator="in" result="OUTLINE"></feComposite>        <feMerge>            <feMergeNode in="OUTLINE"></feMergeNode>            <feMergeNode in="SourceGraphic"></feMergeNode>        </feMerge>            <feColorMatrix type="matrix" values="0   0   0   0   0                0   1   0   0   0                0   0   0   0   0                0   0   0   1   0 "></feColorMatrix>    </filter></defs></svg>
